<?xml version="1.0" encoding="UTF-8"?>
<svg width="1200pt" height="1200pt" version="1.1" viewBox="0 0 1200 1200" xmlns="http://www.w3.org/2000/svg">
 <path d="m966 600c-0.71875 151.2-96.238 291.36-239.04 343.44-145.2 53.039-310.08 8.1602-408.96-110.16-98.879-118.08-110.64-291.6-31.199-422.88 79.199-130.32 235.92-199.68 385.68-169.2 148.8 30.48 265.2 152.4 289.2 302.4 3.1211 18.48 4.3203 37.441 4.3203 56.402 0 23.039 36 23.281 36 0-0.71875-168.24-107.52-320.64-265.68-378.24-156.96-57.359-339.84-7.1992-445.92 121.92-107.28 130.56-122.4 319.2-34.559 464.16 87.602 144.24 259.44 219.12 424.8 186 161.04-32.16 290.88-167.04 316.08-329.52 3.3594-21.359 5.2812-42.961 5.2812-64.559 0-23.047-36-23.047-36 0.23438z"/>
 <path d="m618 216v-139.68c0-23.281-36-23.281-36 0v139.68c0 23.039 36 23.281 36 0z"/>
 <path d="m618 1123.7v-139.68c0-23.281-36-23.281-36 0v139.68c0 23.281 36 23.281 36 0z"/>
 <path d="m216 582h-139.68c-23.281 0-23.281 36 0 36h139.68c23.039 0 23.281-36 0-36z"/>
 <path d="m1123.7 582h-139.68c-23.281 0-23.281 36 0 36h139.68c23.281 0 23.281-36 0-36z"/>
 <path d="m582 440.64v279.36 39.602c0 23.281 36 23.281 36 0v-279.36-39.602c0-23.281-36-23.281-36 0z"/>
 <path d="m440.64 618h279.36 39.602c23.281 0 23.281-36 0-36h-279.36-39.602c-23.281 0-23.281 36 0 36z"/>
</svg>
